# xmcd
#
# Track frame offsets:
#	150
#	18438
#	35873
#	51815
#	62953
#	77200
#	90733
#	111033
#	121585
#	136705
#	154188
#	173958
#
# Disc length: 2527 seconds
#
# Revision: 0
# Processed by: cddbd v1.5.1PL0 Copyright (c) Steve Scherf et al.
# Submitted via: dBpowerAMP V4.0
#
DISCID=9a09dd0c
DTITLE=Randy Travis - Full Circle
DYEAR=1996
DGENRE=Country
TTITLE0=Highway Junkie
TTITLE1=Price To Pay
TTITLE2=Long On Lonely ( Short On Pride )
TTITLE3=Would I
TTITLE4=Future Mister Me
TTITLE5=Don't Take Your Love Away From Me
TTITLE6=Are We In Trouble Now
TTITLE7=If It Ain't One Thing It's Another
TTITLE8=I Wish It Would Rain
TTITLE9=King Of The Road
TTITLE10=I Can Almost Hear Her Wings
TTITLE11=Ants On A Log
EXTD=
EXTT0=
EXTT1=
EXTT2=
EXTT3=
EXTT4=
EXTT5=
EXTT6=
EXTT7=
EXTT8=
EXTT9=
EXTT10=
EXTT11=
PLAYORDER=
